<svg id="visual" viewBox="0 0 960 540" width="960" height="540" xmlns="http://www.w3.org/2000/svg" xmlns:xlink="http://www.w3.org/1999/xlink" version="1.1"><rect x="0" y="0" width="960" height="540" fill="#8E6C0C"></rect><path d="M0 302L32 303C64 304 128 306 192 301.3C256 296.7 320 285.3 384 278C448 270.7 512 267.3 576 269.2C640 271 704 278 768 286.2C832 294.3 896 303.7 928 308.3L960 313L960 0L928 0C896 0 832 0 768 0C704 0 640 0 576 0C512 0 448 0 384 0C320 0 256 0 192 0C128 0 64 0 32 0L0 0Z" fill="#402E32" stroke-linecap="round" stroke-linejoin="miter"></path></svg>